<svg width="184" height="184" viewBox="0 0 184 184" fill="none" xmlns="http://www.w3.org/2000/svg">
<path d="M92 183.988C142.804 183.988 183.989 142.804 183.989 91.9999C183.989 41.196 142.804 0.0113525 92 0.0113525C41.1962 0.0113525 0.0115356 41.196 0.0115356 91.9999C0.0115356 142.804 41.1962 183.988 92 183.988Z" fill="#FFCB46"/>
<path d="M183.989 91.9998C183.989 142.824 142.796 183.988 92 183.988C63.0833 183.988 37.2658 170.648 20.3953 149.753C36.179 162.518 56.2695 170.137 78.1483 170.137C128.944 170.137 170.137 128.972 170.137 78.148C170.137 56.2693 162.518 36.1788 149.753 20.395C170.62 37.2655 183.989 63.083 183.989 91.9998Z" fill="#FFCB46"/>
<path d="M184 35.7247V95.0705C184 99.0092 180.814 102.195 176.928 102.195H109.71C105.047 102.195 101.269 98.417 101.269 93.7537V86.112C101.269 81.4832 98.0835 77.211 93.5123 76.5037C87.6933 75.6067 82.7367 80.0975 82.7367 85.6807V93.7537C82.7367 98.417 78.959 102.195 74.2957 102.195H7.0725C3.16825 102.195 0 99.0265 0 95.1222V35.7247C0 31.8205 3.16825 28.6522 7.0725 28.6522H176.928C180.814 28.6522 184 31.786 184 35.7247Z" fill="#FEF3E9"/>
<path d="M73.5368 49.5652V81.2822C73.5368 85.8764 69.851 89.5622 65.251 89.5622H20.9128C16.3185 89.5622 12.627 85.8764 12.627 81.2822V49.5652C12.627 44.9709 16.3128 41.2794 20.9128 41.2794H65.2568C69.851 41.2794 73.5368 44.9652 73.5368 49.5652Z" fill="#4AAAD2"/>
<path d="M171.373 49.5652V81.2822C171.373 85.8764 167.687 89.5622 163.087 89.5622H118.743C114.149 89.5622 110.458 85.8764 110.458 81.2822V49.5652C110.458 44.9709 114.143 41.2794 118.743 41.2794H163.087C167.687 41.2794 171.373 44.9652 171.373 49.5652Z" fill="#F94D4D"/>
<path d="M34.2068 41.2794L12.627 62.8592V68.3274L39.6808 41.2794H34.2068Z" fill="#41A3CC"/>
<path d="M44.3095 41.2794L12.627 72.9619V81.2822C12.627 81.9549 12.7305 82.6047 12.88 83.2314L54.832 41.2794C54.832 41.2794 44.3095 41.2794 44.3095 41.2794Z" fill="#41A3CC"/>
<path d="M134.17 41.2794L110.463 64.9867V70.4607L139.639 41.2794H134.17Z" fill="#ED4141"/>
<path d="M144.273 41.2794L110.463 75.0894V81.2822C110.463 82.5529 110.768 83.7374 111.268 84.8069L154.796 41.2794H144.273Z" fill="#ED4141"/>
<path d="M118.41 142.031C118.41 158.09 106.582 171.137 92.0231 171.137C77.4066 171.137 65.6363 158.09 65.6363 142.031C65.6363 125.971 77.4066 112.924 92.0231 112.924C106.582 112.924 118.41 125.971 118.41 142.031Z" fill="#130C03"/>
<path d="M92.0231 171.137C99.5728 171.137 106.341 167.584 111.148 161.972C111.079 155.158 105.524 149.684 98.7448 149.684C95.4616 149.684 92.5348 150.914 90.3326 153.019C88.7916 152.3 87.1011 151.938 85.3071 151.938C79.1661 151.938 74.1176 156.457 73.1573 162.334C77.9356 167.75 84.6056 171.137 92.0231 171.137Z" fill="#F94D4D"/>
<g opacity="0.2">
<path opacity="0.2" d="M104.311 156.274C103.966 157.481 102.241 158.114 100.401 157.654C98.5607 157.194 97.3532 155.814 97.6982 154.549C97.9857 153.341 99.7682 152.709 101.551 153.169C103.391 153.686 104.598 155.066 104.311 156.274Z" fill="white"/>
</g>
</svg>
