<svg width="44" height="44" viewBox="0 0 44 44" fill="none" xmlns="http://www.w3.org/2000/svg">
<path d="M44 0V22.0873L33.0001 11.0873V0H44Z" fill="#FEF3E9"/>
<path d="M43.9999 36.0053V36.0359L36.2589 43.7987L33.3188 40.8587L33.0174 41.0553C29.675 42.9907 25.8797 44.0066 22.0174 43.9997H21.9606C16.132 43.9916 10.545 41.6699 6.42718 37.5447C2.30938 33.4196 -0.0023196 27.8284 1.74658e-06 21.9998V7.55737L3.12787 10.6852L10.9912 18.5486V21.991C10.99 24.8952 12.1378 27.6819 14.1839 29.7428C16.2301 31.8037 19.0085 32.9714 21.9126 32.991H21.9694C24.8864 32.9883 27.6838 31.8308 29.7497 29.7714C31.157 28.3631 32.1564 26.5998 32.6417 24.6689L41.0337 33.039L43.9999 36.0053Z" fill="#A3CA34"/>
</svg>
