<svg width="38" height="134" viewBox="0 0 38 134" fill="none" xmlns="http://www.w3.org/2000/svg">
<path d="M14.3348 132.641C15.2409 134.453 18.1856 134.453 19.0916 132.641C26.7931 118.597 33.815 104.327 37.8923 88.9237C38.3453 86.6586 35.8537 84.3935 33.815 85.7525C29.2848 88.9237 25.434 92.7745 22.0363 97.3048C22.9424 65.5928 27.2461 32.7483 19.7712 1.48939C19.3182 -0.775743 15.4678 -0.322725 15.6943 1.94278C19.7712 34.3343 16.6 66.4992 16.1473 98.8907C12.2966 95.493 8.44585 92.0953 4.82163 88.6976C3.23603 87.112 -0.162056 88.0181 0.0644569 90.7362C1.87694 105.686 6.86025 119.73 14.3348 132.641ZM16.8265 105.686C18.1856 107.724 22.0363 107.271 22.0363 104.1C22.0363 103.874 22.0363 103.647 22.0363 103.647C24.7545 100.929 27.2461 98.2108 30.1908 95.4926C26.5666 105.912 22.0363 115.652 16.8269 125.392C12.2966 116.558 8.89888 107.498 7.08676 97.7578C9.57842 100.023 12.2966 102.288 14.7886 104.78C15.2409 105.686 16.1473 105.912 16.8265 105.686Z" fill="#FEF3E9"/>
</svg>
